<svg width="222" height="73" viewBox="0 0 222 73" fill="none" xmlns="http://www.w3.org/2000/svg">
<path d="M94.5439 54.5042V18.5431H104.231V54.5042H94.5439Z" fill="#0D2C99"/>
<path d="M138.057 18.5431H147.849L130.949 54.5042H123.263L106.364 18.5431H116.419L127.212 42.8232L138.057 18.5431Z" fill="#0D2C99"/>
<path d="M174.534 54.5042L171.218 47.0569H154.792L151.476 54.5042H141.736L159.057 18.5431H166.743L184.116 54.5042H174.534ZM157.899 40.0177H168.112L163.005 28.4898L157.899 40.0177Z" fill="#0D2C99"/>
<path d="M202.973 54.9633C199.182 54.9633 195.883 54.2152 193.075 52.7189C190.303 51.1887 188.162 49.0463 186.653 46.2918C185.144 43.5033 184.389 40.2388 184.389 36.4981C184.389 32.7575 185.144 29.5099 186.653 26.7555C188.162 23.967 190.303 21.8246 193.075 20.3284C195.883 18.8321 199.182 18.084 202.973 18.084C206.763 18.084 210.045 18.8321 212.817 20.3284C215.625 21.8246 217.766 23.967 219.24 26.7555C220.749 29.5099 221.504 32.7575 221.504 36.4981C221.504 40.2388 220.749 43.5033 219.24 46.2918C217.731 49.0463 215.573 51.1887 212.765 52.7189C209.992 54.2152 206.728 54.9633 202.973 54.9633ZM202.973 47.7711C205.781 47.7711 207.974 46.8189 209.553 44.9146C211.133 42.9762 211.923 40.1708 211.923 36.4981C211.923 32.8255 211.115 30.037 209.501 28.1327C207.921 26.2284 205.745 25.2762 202.973 25.2762C200.165 25.2762 197.971 26.2284 196.392 28.1327C194.813 30.003 194.023 32.7915 194.023 36.4981C194.023 40.2048 194.813 43.0103 196.392 44.9146C197.971 46.8189 200.165 47.7711 202.973 47.7711Z" fill="#0D2C99"/>
<path d="M36.5 71C55.5538 71 71 55.5538 71 36.5C71 17.4462 55.5538 2 36.5 2C17.4462 2 2 17.4462 2 36.5C2 55.5538 17.4462 71 36.5 71Z" stroke="#0D2C99" stroke-width="2.37931" stroke-miterlimit="10"/>
<path fill-rule="evenodd" clip-rule="evenodd" d="M42.7136 44.6212C42.7005 44.6195 40.7003 44.3652 40.466 44.355C40.4432 44.3541 40.4153 44.353 40.3834 44.3517C40.1888 44.3438 39.8467 44.33 39.6175 44.3139C39.4864 44.3047 39.33 44.1958 39.3225 44.0646C39.3173 43.9743 39.3164 43.8643 39.3154 43.7507C39.3147 43.6688 39.3139 43.585 39.3116 43.5055C39.3116 43.1595 39.3497 42.5939 39.3707 42.4634C39.372 42.4552 39.3759 42.4449 39.3804 42.4378C39.3937 42.4168 39.4174 42.4102 39.4423 42.4102H39.8837C39.9532 42.4102 39.9552 42.5843 39.9458 42.6881C39.9453 42.6939 39.9449 42.6997 39.9448 42.7055C39.9426 42.7925 39.9246 43.5015 39.9246 43.5976C39.9246 43.6999 40.1187 43.7818 40.3639 43.7716C40.6072 43.7614 42.7209 43.6404 42.7541 43.6385C42.7543 43.6385 42.7544 43.6385 42.7545 43.6385L42.7547 43.6385L42.7752 43.6376C43.1007 43.6232 47.1762 43.4432 47.6175 43.4236C48.0773 43.4031 48.1488 42.7275 48.1386 42.2055C48.1318 41.8628 48.0547 41.529 48.0025 41.34C47.976 41.2443 47.8888 41.1803 47.7894 41.178L47.2252 41.1649C47.144 41.163 47.0809 41.0936 47.0867 41.0126C47.0921 40.9359 47.1577 40.8774 47.2345 40.8807L48.5843 40.9384C48.6944 40.9431 48.7844 41.0246 48.8324 41.1238C48.8781 41.2181 48.953 41.3149 49.0682 41.3149C49.1495 41.3149 49.2014 41.2708 49.2345 41.2144C49.3028 41.0982 49.4049 40.9812 49.5396 40.9861L49.6226 40.9892C49.7517 40.9939 49.8535 41.1006 49.8515 41.2299C49.8477 41.4807 49.8411 41.8701 49.8345 42.0622C49.8345 42.3693 49.9673 42.6559 50.1614 42.6661C50.2581 42.6703 50.3219 42.6173 50.3636 42.5535C50.4312 42.4498 50.5324 42.3528 50.6561 42.3579L51.19 42.3802C51.3174 42.3855 51.4154 42.4924 51.451 42.6149C51.4849 42.7317 51.5539 42.8503 51.6939 42.8503C51.8353 42.8608 51.9149 42.7449 51.959 42.6294C52.0041 42.5111 52.1097 42.4138 52.2362 42.4183L55.2024 42.5251C55.3132 42.5291 55.3926 42.6209 55.4669 42.7067C55.476 42.7173 55.4851 42.7277 55.4941 42.7379C55.5206 42.7679 55.557 42.7889 55.6067 42.7889C55.6778 42.7889 55.7334 42.7495 55.7744 42.703C55.8429 42.6251 55.9326 42.5554 56.0363 42.5583L57.2426 42.5914C57.313 42.5933 57.3807 42.5639 57.4274 42.5111L57.498 42.4312C57.5906 42.3265 57.7539 42.3232 57.8585 42.4161C58.0467 42.5832 58.3379 42.8056 58.549 42.7992C58.8862 42.7992 59.4379 42.3385 59.6524 41.8574C59.7582 41.6203 59.8118 41.418 59.839 41.2738C59.8633 41.1449 59.969 41.0383 60.1001 41.0379C61.3178 41.0343 66.9107 41.0181 67.4475 41.0181C68.0503 41.0079 68.1116 39.452 68.0707 39.5543C68.0451 39.6186 67.9591 39.848 67.8986 40.01C67.8614 40.1098 67.7624 40.1728 67.6562 40.1641L59.3934 39.4924C59.3185 39.4863 59.251 39.445 59.2013 39.3887C59.0851 39.2571 58.8292 39.0304 58.4264 39.0016C58.0439 38.9742 57.7801 39.1528 57.6473 39.2741C57.5812 39.3345 57.4922 39.3713 57.4038 39.357L50.3809 38.2221C50.307 38.2102 50.2432 38.1644 50.2004 38.103C50.0562 37.8965 49.6604 37.441 48.9661 37.4252C48.5341 37.4084 48.3055 37.5304 48.1871 37.6439C48.0977 37.7296 47.9685 37.8072 47.8465 37.7856C40.524 36.4884 39.838 35.7201 39.7771 35.6155C39.7723 35.6073 39.7709 35.599 39.7699 35.5895C39.7576 35.4683 39.6692 34.5508 39.6692 33.208C39.6692 27.8545 37.4114 24.7939 36.5021 24.7939C36.4985 24.7939 36.4949 24.7943 36.4914 24.795C36.4883 24.7944 36.4851 24.7942 36.4819 24.7942C35.5727 24.7942 33.3148 27.8547 33.3148 33.2082C33.3148 34.551 33.2264 35.4685 33.2141 35.5897C33.2131 35.5992 33.2117 35.6075 33.207 35.6157C33.146 35.7203 32.46 36.4887 25.1375 37.7858C25.0155 37.8074 24.8863 37.7298 24.7969 37.6441C24.6786 37.5306 24.4499 37.4086 24.0179 37.4254C23.3236 37.4413 22.9278 37.8967 22.7836 38.1032C22.7408 38.1646 22.677 38.2104 22.6031 38.2223L15.5802 39.3573C15.4918 39.3715 15.4028 39.3347 15.3367 39.2743C15.2039 39.153 14.9401 38.9744 14.5576 39.0018C14.1548 39.0306 13.8989 39.2573 13.7827 39.3889C13.733 39.4453 13.6655 39.4865 13.5906 39.4926L5.32783 40.1644C5.22165 40.173 5.12268 40.11 5.08542 40.0102C5.02492 39.8482 4.93897 39.6188 4.91333 39.5545C4.87247 39.4522 4.93376 41.0081 5.53653 41.0183C6.07331 41.0183 11.6662 41.0345 12.8839 41.0381C13.015 41.0385 13.1207 41.1451 13.145 41.274C13.1722 41.4182 13.2258 41.6205 13.3316 41.8577C13.5461 42.3388 14.0978 42.7994 14.435 42.7994C14.6461 42.8058 14.9373 42.5834 15.1255 42.4163C15.2301 42.3235 15.3934 42.3267 15.486 42.4315L15.5566 42.5114C15.6033 42.5641 15.671 42.5935 15.7414 42.5916L16.9477 42.5585C17.0514 42.5556 17.1411 42.6253 17.2096 42.7032C17.2506 42.7498 17.3062 42.7891 17.3773 42.7891C17.427 42.7891 17.4634 42.7681 17.4899 42.7381C17.499 42.7279 17.508 42.7175 17.5171 42.7069C17.5914 42.6211 17.6708 42.5293 17.7816 42.5253L20.7478 42.4185C20.8743 42.414 20.9799 42.5113 21.025 42.6296C21.0691 42.7451 21.1487 42.8611 21.2902 42.8506C21.4301 42.8506 21.4991 42.7319 21.533 42.6151C21.5686 42.4926 21.6666 42.3857 21.794 42.3804L22.3279 42.3581C22.4516 42.353 22.5528 42.45 22.6204 42.5537C22.6621 42.6175 22.7259 42.6705 22.8226 42.6663C23.0167 42.6561 23.1495 42.3695 23.1495 42.0624C23.1429 41.8703 23.1363 41.4809 23.1325 41.2301C23.1305 41.1009 23.2323 40.9941 23.3614 40.9894L23.4444 40.9863C23.5791 40.9814 23.6812 41.0984 23.7495 41.2146C23.7826 41.271 23.8345 41.3152 23.9158 41.3152C24.031 41.3152 24.1059 41.2183 24.1516 41.124C24.1996 41.0249 24.2897 40.9433 24.3997 40.9386L25.7495 40.8809C25.8263 40.8776 25.8919 40.9361 25.8974 41.0128C25.9031 41.0938 25.84 41.1632 25.7589 41.1651L25.1946 41.1782C25.0952 41.1805 25.008 41.2445 24.9815 41.3402C24.9293 41.5292 24.8522 41.863 24.8455 42.2057C24.8352 42.7277 24.9068 43.4033 25.3665 43.4238C25.8245 43.4442 30.1958 43.6372 30.2293 43.6387C30.2298 43.6388 30.2297 43.6387 30.2296 43.6387C30.2295 43.6387 30.2294 43.6387 30.2299 43.6388C30.2631 43.6407 32.3769 43.7616 32.6201 43.7718C32.8653 43.782 33.0594 43.7002 33.0594 43.5978C33.0594 43.5017 33.0414 42.7927 33.0392 42.7057C33.0391 42.6999 33.0387 42.6941 33.0382 42.6883C33.0288 42.5845 33.0308 42.4104 33.1003 42.4104H33.5417C33.5666 42.4104 33.5903 42.417 33.6036 42.4381C33.6081 42.4451 33.612 42.4554 33.6133 42.4636C33.6343 42.5941 33.6724 43.1597 33.6724 43.5057C33.6701 43.5852 33.6693 43.669 33.6686 43.7509C33.6676 43.8645 33.6667 43.9745 33.6615 44.0648C33.654 44.196 33.4976 44.3048 33.3666 44.314C33.1462 44.3293 32.8219 44.3427 32.6263 44.3507C32.583 44.3525 32.5461 44.354 32.518 44.3553C32.2837 44.3655 30.2835 44.6197 30.2704 44.6214L30.2703 44.6214C30.2572 44.623 25.9895 45.1435 25.8773 45.1639C25.7649 45.1844 25.7751 45.3789 25.8773 45.3789C25.8941 45.3789 25.9889 45.3847 26.1436 45.3941C26.9309 45.4423 29.2699 45.5854 30.7812 45.5426C32.3562 45.4894 34.2992 45.4209 34.7912 45.4035C34.8658 45.4009 34.9358 45.4329 34.9845 45.4895C35.2035 45.7438 35.8521 46.456 36.3449 46.5788C36.3168 46.5904 36.2861 46.5967 36.2539 46.5967H36.4679C36.4726 46.5969 36.4773 46.597 36.4819 46.597H36.7302C36.6976 46.597 36.6667 46.5905 36.6385 46.5788C37.1314 46.4564 37.7804 45.7437 37.9995 45.4893C38.0482 45.4327 38.1182 45.4006 38.1929 45.4033C38.6849 45.4207 40.6278 45.4892 42.2028 45.5424C43.7141 45.5852 46.0531 45.4421 46.8404 45.3939C46.9951 45.3845 47.0899 45.3787 47.1067 45.3787C47.2089 45.3787 47.2191 45.1842 47.1067 45.1637C46.9952 45.1434 42.7767 44.6289 42.7144 44.6213L42.7137 44.6212L42.7136 44.6212ZM36.492 46.3691C36.4917 46.3627 36.4917 46.3562 36.492 46.3497L36.492 46.3691Z" fill="#0D2C99"/>
</svg>
