<?xml version="1.0" encoding="UTF-8" standalone="no"?>
<!-- Uploaded to: SVG Repo, www.svgrepo.com, Generator: SVG Repo Mixer Tools -->

<svg
   width="800px"
   height="800px"
   viewBox="0 0 24 24"
   version="1.1"
   id="svg2"
   sodipodi:docname="airplane.svg"
   inkscape:version="1.3.2 (091e20e, 2023-11-25, custom)"
   xmlns:inkscape="http://www.inkscape.org/namespaces/inkscape"
   xmlns:sodipodi="http://sodipodi.sourceforge.net/DTD/sodipodi-0.dtd"
   xmlns="http://www.w3.org/2000/svg"
   xmlns:svg="http://www.w3.org/2000/svg">
  <defs
     id="defs2" />
  <sodipodi:namedview
     id="namedview2"
     pagecolor="#ffffff"
     bordercolor="#000000"
     borderopacity="0.25"
     inkscape:showpageshadow="2"
     inkscape:pageopacity="0.0"
     inkscape:pagecheckerboard="true"
     inkscape:deskcolor="#d1d1d1"
     inkscape:zoom="0.43125"
     inkscape:cx="400"
     inkscape:cy="400"
     inkscape:window-width="1280"
     inkscape:window-height="1001"
     inkscape:window-x="-8"
     inkscape:window-y="39"
     inkscape:window-maximized="1"
     inkscape:current-layer="svg2" />
  <path
     d="M20.946 15.076L14 9.84V5.19a4.6 4.6 0 0 0-2-4.183 4.6 4.6 0 0 0-2 4.183v4.648l-6.946 5.237S2 15.895 2 16.714v1.046l7.994-3.142.802 4.73c-2.13 2.171-2.808 2.255-2.808 2.633V23L12 22.008l4.012.992v-1.019c0-.379-.678-.462-2.808-2.633l.802-4.73L22 17.76v-1.046c0-.819-1.054-1.638-1.054-1.638zm-7.723-1.84l-1.094 6.447.358.364a24.83 24.83 0 0 0 1.502 1.422L12 20.978l-1.989.49c.4-.344.894-.8 1.502-1.421l.358-.364-1.094-6.448-7.406 2.911a2.541 2.541 0 0 1 .3-.28l7.326-5.53V5.19A4.081 4.081 0 0 1 12 2.288a4.081 4.081 0 0 1 1.003 2.902v5.146l7.337 5.537a2.718 2.718 0 0 1 .292.274z"
     id="path1"
     style="stroke:none;stroke-opacity:1;stroke-width:0.18;stroke-dasharray:none;fill:#ffffff;fill-opacity:1" />
</svg>
