<?xml version="1.0" encoding="UTF-8" standalone="no"?>
<svg
   viewBox="0 0 576 512"
   version="1.1"
   id="svg1"
   sodipodi:docname="plane-bi.svg"
   inkscape:version="1.3.2 (091e20e, 2023-11-25, custom)"
   inkscape:export-filename="plane-bi.png"
   inkscape:export-xdpi="96"
   inkscape:export-ydpi="96"
   xmlns:inkscape="http://www.inkscape.org/namespaces/inkscape"
   xmlns:sodipodi="http://sodipodi.sourceforge.net/DTD/sodipodi-0.dtd"
   xmlns="http://www.w3.org/2000/svg"
   xmlns:svg="http://www.w3.org/2000/svg">
  <defs
     id="defs1">
    <inkscape:path-effect
       effect="fillet_chamfer"
       id="path-effect9"
       is_visible="true"
       lpeversion="1"
       nodesatellites_param="F,0,0,1,0,0,0,1 @ F,0,0,1,0,0,0,1 @ F,0,0,1,0,0,0,1 @ F,0,0,1,0,0,0,1 @ F,0,0,1,0,0,0,1 @ F,0,0,1,0,23.70709,0,1 @ F,0,0,1,0,23.7071,0,1 @ F,0,0,1,0,0,0,1 @ F,0,0,1,0,0,0,1 @ F,0,0,1,0,0,0,1 @ F,0,0,1,0,0,0,1 @ F,0,0,1,0,0,0,1 @ F,0,0,1,0,0,0,1 @ F,0,0,1,0,0,0,1 @ F,0,0,1,0,0,0,1 @ F,0,0,1,0,0,0,1 @ F,0,0,1,0,0,0,1 @ F,0,0,1,0,0,0,1 @ F,0,0,1,0,0,0,1 @ F,0,0,1,0,0,0,1 @ F,0,0,1,0,0,0,1 @ F,0,0,1,0,0,0,1 @ F,0,0,1,0,0,0,1 @ F,0,0,1,0,0,0,1 @ F,0,0,1,0,0,0,1 @ F,0,0,1,0,0,0,1 @ F,0,0,1,0,0,0,1 @ F,0,0,1,0,0,0,1 @ F,0,0,1,0,0,0,1 @ F,0,0,1,0,0,0,1 @ F,0,0,1,0,0,0,1 @ F,0,0,1,0,0,0,1 @ F,0,0,1,0,0,0,1 @ F,0,0,1,0,0,0,1 @ F,0,0,1,0,0,0,1 @ F,0,0,1,0,0,0,1 @ F,0,0,1,0,0,0,1 @ F,0,0,1,0,0,0,1 @ F,0,0,1,0,24.95951,0,1 @ F,0,1,1,0,23.7071,0,1 @ F,0,0,1,0,0,0,1 @ F,0,0,1,0,0,0,1"
       radius="0"
       unit="px"
       method="auto"
       mode="F"
       chamfer_steps="1"
       flexible="false"
       use_knot_distance="true"
       apply_no_radius="true"
       apply_with_radius="true"
       only_selected="false"
       hide_knots="false" />
  </defs>
  <sodipodi:namedview
     id="namedview1"
     pagecolor="#ffffff"
     bordercolor="#000000"
     borderopacity="0.25"
     inkscape:showpageshadow="2"
     inkscape:pageopacity="0.0"
     inkscape:pagecheckerboard="0"
     inkscape:deskcolor="#d1d1d1"
     inkscape:zoom="1.1338568"
     inkscape:cx="284.42746"
     inkscape:cy="292.36497"
     inkscape:window-width="1419"
     inkscape:window-height="1017"
     inkscape:window-x="1488"
     inkscape:window-y="-8"
     inkscape:window-maximized="0"
     inkscape:current-layer="svg1"
     showguides="true">
    <sodipodi:guide
       position="32,256"
       orientation="0,-1"
       id="guide1"
       inkscape:locked="false" />
    <sodipodi:guide
       position="443.4598,398.49834"
       orientation="0,-1"
       id="guide2"
       inkscape:locked="false" />
    <sodipodi:guide
       position="443.47541,111.64232"
       orientation="0,-1"
       id="guide3"
       inkscape:locked="false" />
    <sodipodi:guide
       position="482.3,210"
       orientation="1,0"
       id="guide4"
       inkscape:locked="false" />
    <sodipodi:guide
       position="442.61956,159.05651"
       orientation="0,-1"
       id="guide5"
       inkscape:locked="false" />
    <sodipodi:guide
       position="442.56793,348.57932"
       orientation="0,-1"
       id="guide6"
       inkscape:locked="false" />
    <sodipodi:guide
       position="482.3,373.53883"
       orientation="0,-1"
       id="guide8"
       inkscape:locked="false" />
    <sodipodi:guide
       position="482.3,135.34942"
       orientation="0,-1"
       id="guide9"
       inkscape:locked="false" />
  </sodipodi:namedview>
  <!--!Font Awesome Free 6.7.1 by @fontawesome - https://fontawesome.com License - https://fontawesome.com/license/free Copyright 2024 Fonticons, Inc.-->
  <path
     d="m 482.3,212 c 34.2,0 93.7,9 93.7,44 0,36 -59.5,46 -93.7,46 h -40.6 l 0.91956,50.94349 h 15.97335 a 23.70709,23.70709 45 0 1 23.70709,23.70709 23.7071,23.7071 135 0 1 -23.7071,23.7071 h -15.11749 l 0.40552,22.46586 0.47304,26.20642 L 445.2,495.9 c -5.7,10 -16.3,16.1 -27.8,16.1 h -56.2 c -10.6,0 -18.3,-10.2 -15.4,-20.4 L 330.17921,396.06121 314.8,302 H 112 l -11.2,75.6 C 100.06726,382.54602 93,384 88,384 H 46 c -7.8,0 -14,-6.3 -14,-14 0,-1.3 0.2,-2.6 0.5,-3.9 L 32,256 32.5,145.9 C 32.1,144.6 32,143.3 32,142 c 0,-7.8 6.3,-14 14,-14 h 42 c 5,0 11.845652,1.49192 12.8,6.4 L 112,212 H 314.9 L 330.15639,117.70568 345.9,20.4 C 342.9,10.2 350.6,0 361.2,0 h 56.2 c 11.5,0 22.1,6.2 27.8,16.1 l -0.91576,51.256653 -0.45648,25.549521 -0.36796,20.595486 13.88069,0 A 24.95951,24.95951 45 0 1 482.3,138.46117 l 0,1.25241 a 23.7071,23.7071 135 0 1 -23.7071,23.7071 H 442.56793 L 441.7,212 Z"
     id="path1"
     sodipodi:nodetypes="sssccccccccssccccsssscccssssccccssccccccccs"
     inkscape:path-effect="#path-effect9"
     inkscape:original-d="m 482.3,212 c 34.2,0 93.7,9 93.7,44 0,36 -59.5,46 -93.7,46 h -40.6 l 0.91956,50.94349 39.68044,0 v 47.41419 l -38.82459,0 0.40552,22.46586 0.47304,26.20642 L 445.2,495.9 c -5.7,10 -16.3,16.1 -27.8,16.1 h -56.2 c -10.6,0 -18.3,-10.2 -15.4,-20.4 L 330.17921,396.06121 314.8,302 H 112 l -11.2,75.6 C 100.06726,382.54602 93,384 88,384 H 46 c -7.8,0 -14,-6.3 -14,-14 0,-1.3 0.2,-2.6 0.5,-3.9 L 32,256 32.5,145.9 C 32.1,144.6 32,143.3 32,142 c 0,-7.8 6.3,-14 14,-14 h 42 c 5,0 11.845652,1.49192 12.8,6.4 L 112,212 H 314.9 L 330.15639,117.70568 345.9,20.4 C 342.9,10.2 350.6,0 361.2,0 h 56.2 c 11.5,0 22.1,6.2 27.8,16.1 l -0.91576,51.256653 -0.45648,25.549521 -0.36796,20.595486 38.8402,0 0,49.91902 -39.73207,0 L 441.7,212 Z" />
</svg>
