<?xml version="1.0" encoding="UTF-8" standalone="no"?>
<svg
   viewBox="0 0 576 512"
   version="1.1"
   id="svg1"
   sodipodi:docname="plane-mono.svg"
   inkscape:version="1.3.2 (091e20e, 2023-11-25, custom)"
   inkscape:export-filename="plane-mono.png"
   inkscape:export-xdpi="96"
   inkscape:export-ydpi="96"
   xmlns:inkscape="http://www.inkscape.org/namespaces/inkscape"
   xmlns:sodipodi="http://sodipodi.sourceforge.net/DTD/sodipodi-0.dtd"
   xmlns="http://www.w3.org/2000/svg"
   xmlns:svg="http://www.w3.org/2000/svg">
  <defs
     id="defs1" />
  <sodipodi:namedview
     id="namedview1"
     pagecolor="#ffffff"
     bordercolor="#000000"
     borderopacity="0.25"
     inkscape:showpageshadow="2"
     inkscape:pageopacity="0.0"
     inkscape:pagecheckerboard="0"
     inkscape:deskcolor="#d1d1d1"
     inkscape:zoom="1.6035156"
     inkscape:cx="287.80512"
     inkscape:cy="188.02436"
     inkscape:window-width="1920"
     inkscape:window-height="1017"
     inkscape:window-x="1272"
     inkscape:window-y="-8"
     inkscape:window-maximized="1"
     inkscape:current-layer="svg1" />
  <!--!Font Awesome Free 6.7.1 by @fontawesome - https://fontawesome.com License - https://fontawesome.com/license/free Copyright 2024 Fonticons, Inc.-->
  <path
     d="m 482.3,212 c 34.2,0 93.7,9 93.7,44 0,36 -59.5,46 -93.7,46 h -40.6 l 3.5,193.9 c -5.7,10 -16.3,16.1 -27.8,16.1 h -56.2 c -10.6,0 -18.3,-10.2 -15.4,-20.4 L 314.8,302 H 112 l -11.2,75.6 C 100.06726,382.54602 93,384 88,384 H 46 c -7.8,0 -14,-6.3 -14,-14 0,-1.3 0.2,-2.6 0.5,-3.9 L 32,256 32.5,145.9 C 32.1,144.6 32,143.3 32,142 c 0,-7.8 6.3,-14 14,-14 h 42 c 5,0 11.845652,1.49192 12.8,6.4 L 112,212 h 202.9 l 31,-191.6 C 342.9,10.2 350.6,0 361.2,0 h 56.2 c 11.5,0 22.1,6.2 27.8,16.1 L 441.7,212 Z"
     id="path1"
     sodipodi:nodetypes="sssccsscccsssscccsssscccssccs" />
</svg>
